<svg xmlns="http://www.w3.org/2000/svg" xmlns:xlink="http://www.w3.org/1999/xlink" width="1500" height="1500" viewBox="0 0 1500 1500">
  <defs>
    <clipPath id="clip-Artboard_1">
      <rect width="1500" height="1500"/>
    </clipPath>
  </defs>
  <g id="Artboard_1" data-name="Artboard 1" clip-path="url(#clip-Artboard_1)">
    <rect id="Rectangle_4" data-name="Rectangle 4" width="1500" height="1500" fill="#630bde"/>
    <g id="Group_9" data-name="Group 9" transform="translate(-0.48 0.054)">
      <path id="Path_1" data-name="Path 1" d="M382.48,748.878v-.78c.36-259.694,184.164-367.152,385.882-367.152,127.878,0,205.278,45.99,205.278,45.99v61.193s-69.058-46.141-194.427-46.141c-102.825,0-327.279,51.794-328.292,304.567,0,.582,0,1.168,0,1.752,0,.377,0,.753,0,1.13.637,257.157,209.482,306.108,328.294,306.108,123.244,0,194.427-56.936,194.427-56.936V1059.6s-75.156,59.452-215.374,59.452C616.925,1119.056,382.48,1048.382,382.48,748.878Zm278.1,323.682a398.413,398.413,0,0,1-60.382-20.379A376.686,376.686,0,0,0,660.584,1072.56Z" fill="#fff"/>
      <path id="Path_2" data-name="Path 2" d="M787.961,730.916h.642q12.526,0,18.952,20.558h0q12.848,38.544,18.308,38.544h0q4.176,0,8.674-6.423h0q90.26-132.66,167.023-188.87h0q32.444-23.769,63.277-23.769h0q40.8,0,49.144,2.569h0q3.539.965,3.539,8.031h0q0,5.781-7.386,14.454h0Q903.594,833.06,864.086,904.368h0Q850.6,928.779,801.772,928.78h0q-16.059,0-33.727-8.352h0q-7.387-3.853-25.7-49.144h0q-23.127-57.176-23.127-100.216h0q0-15.739,22.485-26.019h0q30.836-14.133,46.254-14.133Z" fill="#fa0"/>
    </g>
  </g>
</svg>
